/* XPM */
static char * ghost_xpm[] = {
"64 64 183 2",
"  	c #000000",
". 	c #242424",
"+ 	c #232222",
"@ 	c #232121",
"# 	c #222121",
"$ 	c #212121",
"% 	c #403F3F",
"& 	c #252424",
"* 	c #1F1D1D",
"= 	c #1E1D1D",
"- 	c #484747",
"; 	c #2D2C2C",
"> 	c #2C2B2B",
", 	c #B3B3B3",
"' 	c #E3E3E3",
") 	c #B2B2B2",
"! 	c #2C2C2C",
"~ 	c #313131",
"{ 	c #181616",
"] 	c #C8C8C8",
"^ 	c #FFFFFF",
"/ 	c #C5C5C5",
"( 	c #1E1C1C",
"_ 	c #110F0F",
": 	c #191818",
"< 	c #ADADAD",
"[ 	c #DCDCDC",
"} 	c #F1F1F1",
"| 	c #F0F0F0",
"1 	c #B1B1B1",
"2 	c #191717",
"3 	c #1D1C1C",
"4 	c #141212",
"5 	c #CDCDCD",
"6 	c #CCCCCC",
"7 	c #424242",
"8 	c #ABABAB",
"9 	c #D3D3D3",
"0 	c #EFEFEF",
"a 	c #AAAAAA",
"b 	c #414040",
"c 	c #393939",
"d 	c #161515",
"e 	c #1C1B1B",
"f 	c #494848",
"g 	c #161414",
"h 	c #A6A6A6",
"i 	c #CFCFCF",
"j 	c #EDEDED",
"k 	c #ACACAC",
"l 	c #2F2F2F",
"m 	c #1E1E1E",
"n 	c #373737",
"o 	c #262626",
"p 	c #181717",
"q 	c #AFAFAF",
"r 	c #CECECE",
"s 	c #A5A5A5",
"t 	c #1C1C1C",
"u 	c #181818",
"v 	c #171515",
"w 	c #DADADA",
"x 	c #3E3E3E",
"y 	c #A6A5A5",
"z 	c #CBCBCB",
"A 	c #A4A4A4",
"B 	c #151414",
"C 	c #525151",
"D 	c #D1D1D1",
"E 	c #595959",
"F 	c #D2D2D2",
"G 	c #E0E0E0",
"H 	c #595858",
"I 	c #555555",
"J 	c #9B9B9B",
"K 	c #C6C6C6",
"L 	c #E9E9E9",
"M 	c #999898",
"N 	c #5A5959",
"O 	c #525252",
"P 	c #585757",
"Q 	c #515151",
"R 	c #989898",
"S 	c #C3C3C3",
"T 	c #E5E5E5",
"U 	c #E8E8E8",
"V 	c #929292",
"W 	c #565656",
"X 	c #F9E5EB",
"Y 	c #F6D2DD",
"Z 	c #D4C3C8",
"` 	c #B8B8B8",
" .	c #F7E2E8",
"..	c #515050",
"+.	c #FED3E0",
"@.	c #FEAEC9",
"#.	c #FFE2EB",
"$.	c #FFE3EB",
"%.	c #FBCCDB",
"&.	c #FFE8EF",
"*.	c #FFD7E4",
"=.	c #FFF0F4",
"-.	c #BFBFBF",
";.	c #DDDDDD",
">.	c #FEE7EE",
",.	c #D4D4D4",
"'.	c #585858",
").	c #DFDFDF",
"!.	c #ECECEC",
"~.	c #EAEAEA",
"{.	c #E2E2E2",
"].	c #9F9F9F",
"^.	c #A8A8A8",
"/.	c #ABAAAA",
"(.	c #C0C0C0",
"_.	c #EBEBEB",
":.	c #BBBBBB",
"<.	c #D0D0D0",
"[.	c #545353",
"}.	c #B7B7B7",
"|.	c #E0DFDF",
"1.	c #B4B4B4",
"2.	c #E1E1E1",
"3.	c #535252",
"4.	c #C7C7C7",
"5.	c #A0A0A0",
"6.	c #DBDBDB",
"7.	c #5B5A5A",
"8.	c #535353",
"9.	c #9E9D9D",
"0.	c #949494",
"a.	c #3A3A3A",
"b.	c #171616",
"c.	c #3A3939",
"d.	c #D6D6D6",
"e.	c #444444",
"f.	c #090808",
"g.	c #434242",
"h.	c #464646",
"i.	c #F2F2F2",
"j.	c #909090",
"k.	c #868686",
"l.	c #0F0E0E",
"m.	c #454444",
"n.	c #8B8B8B",
"o.	c #232323",
"p.	c #DFDEDE",
"q.	c #7E7E7E",
"r.	c #E7E7E7",
"s.	c #A3A3A3",
"t.	c #4B4A4A",
"u.	c #C2C2C2",
"v.	c #E2E1E1",
"w.	c #F3F2F2",
"x.	c #F8F8F8",
"y.	c #4C4B4B",
"z.	c #4F4E4E",
"A.	c #383737",
"B.	c #E4E4E4",
"C.	c #3F3E3E",
"D.	c #BABABA",
"E.	c #E6E6E6",
"F.	c #F6F6F6",
"G.	c #474747",
"H.	c #292828",
"I.	c #353434",
"J.	c #F9F9F9",
"K.	c #313030",
"L.	c #4B4B4B",
"M.	c #151313",
"N.	c #4E4E4E",
"O.	c #1B1A1A",
"P.	c #F5F5F5",
"Q.	c #262525",
"R.	c #252525",
"S.	c #2F2E2E",
"T.	c #303030",
"U.	c #323131",
"V.	c #494949",
"W.	c #1A1818",
"X.	c #242222",
"Y.	c #242323",
"Z.	c #212020",
"                                                                                                                                ",
"                                                                                                                                ",
"                                                                                                                                ",
"                                                                                                                                ",
"                                                                                                                                ",
"                                                                                                                                ",
"                                            . + + @ + # @ + $ + %                                                               ",
"                                            & * * * * * * * * = -                                                               ",
"                                    $ ; > > , ' ' ' ' ' ' ' ' ' ) ! > > ~                                                       ",
"                                    { * * * ] ^ ^ ^ ^ ^ ^ ^ ^ ^ / * = ( ;                                                       ",
"                                _ : < [ [ [ } ^ ^ ^ ^ ^ ^ ^ ^ ^ | [ [ [ 1 2 3                                                   ",
"                                4 * 5 ^ ^ ^ ^ ^ ^ ^ ^ ^ ^ ^ ^ ^ ^ ^ ^ ^ 6 = 2                                                   ",
"                            ~ 7 8 9 0 ^ ^ ^ ^ ^ ^ ^ ^ ^ ^ ^ ^ ^ ^ ^ ^ ^ 0 9 a b c                                               ",
"                            d * 5 ^ ^ ^ ^ ^ ^ ^ ^ ^ ^ ^ ^ ^ ^ ^ ^ ^ ^ ^ ^ ^ 6 = e                                               ",
"                        f g h i j ^ ^ ^ ^ ^ ^ ^ ^ ^ ^ ^ ^ ^ ^ ^ ^ ^ ^ ^ ^ ^ j i k l m                                           ",
"                        n * 6 ^ ^ ^ ^ ^ ^ ^ ^ ^ ^ ^ ^ ^ ^ ^ ^ ^ ^ ^ ^ ^ ^ ^ ^ ^ 5 = o                                           ",
"                    p = q r j ^ ^ ^ ^ ^ ^ ^ ^ ^ ^ ^ ^ ^ ^ ^ ^ ^ ^ ^ ^ ^ ^ ^ ^ ^ j r s t u                                       ",
"                    v * w ^ ^ ^ ^ ^ ^ ^ ^ ^ ^ ^ ^ ^ ^ ^ ^ ^ ^ ^ ^ ^ ^ ^ ^ ^ ^ ^ ^ ^ r * :                                       ",
"                    { * w ^ ^ ^ ^ ^ ^ ^ ^ ^ ^ ^ ^ ^ ^ ^ ^ ^ ^ ^ ^ ^ ^ ^ ^ ^ ^ ^ ^ ^ r * 2                                       ",
"                    { * w ^ ^ ^ ^ ^ ^ ^ ^ ^ ^ ^ ^ ^ ^ ^ ^ ^ ^ ^ ^ ^ ^ ^ ^ ^ ^ ^ ^ ^ r * 2                                       ",
"                x d y z 0 ^ ^ ^ ^ ^ ^ ^ ^ ^ ^ ^ ^ ^ ^ ^ ^ ^ ^ ^ ^ ^ ^ ^ ^ ^ ^ ^ ^ ^ j z A B 7                                   ",
"                C * D ^ ^ ^ ^ ^ ^ ^ ^ ^ ^ ^ ^ ^ ^ ^ ^ ^ ^ ^ ^ ^ ^ ^ ^ ^ ^ ^ ^ ^ ^ ^ ^ ^ r * E                                   ",
"                C * D ^ ^ ^ ^ ^ ^ ^ F k k k G ^ ^ ^ ^ ^ ^ ^ ' k k k F ^ ^ ^ ^ ^ ^ ^ ^ ^ r * H                                   ",
"                C * D ^ ^ ^ ^ ^ ^ ^ a * * * ] ^ ^ ^ ^ ^ ^ ^ 5 * * * 8 ^ ^ ^ ^ ^ ^ ^ ^ ^ r * I                                   ",
"                C * D ^ ^ ^ ^ ^ ^ ^ a * J K L ^ ^ ^ ^ ^ ^ ^ L K M * 8 ^ ^ ^ ^ ^ ^ ^ ^ ^ r * N                                   ",
"                O * D ^ ^ ^ ^ ^ ^ ^ a * ] ^ ^ ^ ^ ^ ^ ^ ^ ^ ^ ^ / * 8 ^ ^ ^ ^ ^ ^ ^ ^ ^ r * P                                   ",
"                Q * D ^ ^ ^ ^ ^ ^ ^ a * R S T ^ ^ ^ ^ ^ ^ ^ U S V * 8 ^ ^ ^ ^ ^ ^ ^ ^ ^ r * W                                   ",
"                C * D ^ ^ ^ ^ ^ ^ ^ a * * * ] ^ ^ ^ ^ ^ ^ ^ 5 * * * 8 ^ ^ ^ ^ ^ ^ ^ ^ ^ r * N                                   ",
"                O * D ^ ^ ^ X Y Y Y Z ` ` ` T ^ ^ ^ ^ ^ ^ ^ T ` ` ` Z Y Y Y  .^ ^ ^ ^ ^ r * W                                   ",
"                ..* D ^ ^ ^ +.@.@.@.#.^ ^ ^ ^ ^ ^ ^ ^ ^ ^ ^ ^ ^ ^ ^ $.@.@.@.%.^ ^ ^ ^ ^ r * P                                   ",
"                C * D ^ ^ ^ &.*.*.*.=.^ ^ ^ [ -.-.-.-.-.-.-.;.^ ^ ^ =.*.*.*.>.^ ^ ^ ^ ^ r * N                                   ",
"                C * D ^ ^ ^ ^ ^ ^ ^ ^ ^ ^ ^ < * * * * * * * q ^ ^ ^ ^ ^ ^ ^ ^ ^ ^ ^ ^ ^ r * I                                   ",
"                C * D ^ ^ ^ ^ ^ ^ ^ ^ ^ ^ ^ 9 a a a a a a a ,.^ ^ ^ ^ ^ ^ ^ ^ ^ ^ ^ ^ ^ r * '.                                  ",
"                C * D ^ ^ ^ ^ ^ ^ ^ ^ ^ ^ ^ ^ ^ ^ ^ ^ ^ ^ ^ ^ ^ ^ ^ ^ ^ ^ ^ ^ ^ ^ ^ ^ ^ r * N                                   ",
"                O * D ^ ).5 5 5 5 5 !.^ ^ ^ ^ ^ ^ ^ ^ ^ ^ ^ ^ ^ ~.5 5 5 5 5 {.^ ^ ^ ^ ^ r * I                                   ",
"                Q * D ^ ].* * * * * 5 ^ ^ ^ ^ ^ ^ ^ ^ ^ ^ ^ ^ ^ / * * * * * ^.^ ^ ^ ^ ^ r * P                                   ",
"                O * D ^ 6 /././././.(.6 _.^ ^ ^ ^ ^ ^ ^ ^ ^ j 6 :./././././.<.^ ^ ^ ^ ^ r * H                                   ",
"                [.* D ^ ^ ^ ^ ^ ^ ^ a * ] ^ ^ ^ ^ ^ ^ ^ ^ ^ 5 * a ^ ^ ^ ^ ^ ^ ^ ^ ^ ^ ^ r * I                                   ",
"                O * D ^ ).6 6 6 6 6 }.^.).^ ^ ^ ^ ^ ^ ^ ^ ^ |.^.1.6 6 6 6 6 2.^ ^ ^ ^ ^ r * N                                   ",
"                3.* D ^ ].* * * * * 5 ^ ^ ^ ^ ^ ^ ^ ^ ^ ^ ^ ^ ^ / * * * * * ^.^ ^ ^ ^ ^ r * '.                                  ",
"                [.* D ^ 4.5.5.5.5.5.G ^ ^ ^ ^ ^ ^ ^ ^ ^ ^ ^ ^ ^ 6.5.5.5.5.5.z ^ ^ ^ ^ ^ r * I                                   ",
"                C * D ^ ^ ^ ^ ^ ^ ^ ^ ^ ^ ^ ^ ^ ^ ^ ^ ^ ^ ^ ^ ^ ^ ^ ^ ^ ^ ^ ^ ^ ^ ^ ^ ^ r * 7.                                  ",
"                8.* D ^ ^ ^ ^ ^ ^ ^ ^ ^ ^ ^ ^ ^ ^ ^ ^ ^ ^ ^ ^ ^ ^ ^ ^ ^ ^ ^ ^ ^ ^ ^ ^ ^ 2.9.0.a.c       b.c.a.                  ",
"                [.* D ^ ^ ^ ^ ^ ^ ^ ^ ^ ^ ^ ^ ^ ^ ^ ^ ^ ^ ^ ^ ^ ^ ^ ^ ^ ^ ^ ^ ^ ^ ^ ^ ^ ^ ^ d.* e.      f.* g.                  ",
"                h.; 1 ,.i.^ ^ ^ ^ ^ ^ ^ ^ ^ ^ ^ ^ ^ ^ ^ ^ ^ ^ ^ ^ ^ ^ ^ ^ ^ ^ ^ ^ ^ ^ ^ ^ ^ ' j.k.l.l.l.m.j.n.l.o.              ",
"                    { * w ^ ^ ^ ^ ^ ^ ^ ^ ^ ^ ^ ^ ^ ^ ^ ^ ^ ^ ^ ^ ^ ^ ^ ^ ^ ^ ^ ^ ^ ^ ^ ^ ^ ^ ^ p.* * * q.^ r.* c.              ",
"                    { * w ^ ^ ^ ^ ^ ^ ^ ^ ^ ^ ^ ^ ^ ^ ^ ^ ^ ^ ^ ^ ^ ^ ^ ^ ^ ^ ^ ^ ^ ^ ^ ^ ^ ^ ^ ~.s.s.s.}.^ r.* a.              ",
"                    { * w ^ ^ ^ ^ ^ ^ ^ ^ ^ ^ ^ ^ ^ ^ ^ ^ ^ ^ ^ ^ ^ ^ ^ ^ ^ ^ ^ ^ ^ ^ ^ ^ ^ ^ ^ ^ ^ ^ ^ ^ ^ r.* n               ",
"                    7 t.u.v.w.^ ^ ^ ^ ^ ^ ^ ^ ^ ^ ^ ^ ^ ^ ^ ^ ^ ^ ^ ^ ^ ^ ^ ^ ^ ^ ^ ^ ^ ^ ^ ^ ^ ^ ^ ^ ^ x.{.<.y.z.              ",
"                        A.* 6 ^ ^ ^ ^ ^ ^ ^ ^ ^ ^ ^ ^ ^ ^ ^ ^ ^ ^ ^ ^ ^ ^ ^ ^ ^ ^ ^ ^ ^ ^ ^ ^ ^ ^ ^ ^ ^ B.* e.                  ",
"                        h.C.D.E.F.^ ^ ^ ^ ^ ^ ^ ^ ^ ^ ^ ^ ^ ^ ^ ^ ^ ^ ^ ^ ^ ^ ^ ^ ^ ^ ^ ^ ^ ^ ^ ^ ^ ^ ^ B.* G.                  ",
"                            d * 5 ^ ^ ^ ^ ^ ^ ^ ^ ^ ^ ^ ^ ^ ^ ^ ^ ^ ^ ^ ^ ^ ^ ^ ^ ^ ^ ^ ^ ^ ^ ^ ^ ^ ^ ^ B.* g.                  ",
"                            H.I.D.r.F.^ ^ ^ ^ ^ ^ ^ ^ ^ ^ ^ ^ ^ ^ ^ ^ ^ ^ ^ ^ ^ ^ ^ ^ ^ ^ ^ ^ ^ J.r.r.r.D K.L.                  ",
"                                M.* 5 ^ ^ ^ ^ ^ ^ ^ ^ ^ ^ ^ ^ ^ ^ ^ ^ ^ ^ ^ ^ ^ ^ ^ ^ ^ ^ ^ ^ ^ p.* * * N.                      ",
"                                O.& D.U U U P.^ ^ ^ ^ ^ ^ ^ ^ ^ ^ ^ ^ ^ ^ ^ ^ ^ ^ ^ ^ ^ F.U U U r & Q.& N.                      ",
"                                    b.= * * ] ^ ^ ^ ^ ^ ^ ^ ^ ^ ^ ^ ^ ^ ^ ^ ^ ^ ^ ^ ^ ^ <.* * * -                               ",
"                                    R.K.S.T.` L L L L L L L L L L L L L L L L L L L L L u.K.S.U.V.                              ",
"                                            Q.( ( ( ( = = = = = = * * * * * * * * * * * W.                                      ",
"                                            Q.& + X.& # Y.Y.# Y.Y.# Y.Y.# & X.+ & + + & Z.                                      ",
"                                                                                                                                ",
"                                                                                                                                ",
"                                                                                                                                ",
"                                                                                                                                ",
"                                                                                                                                "};
